<svg width="126" height="121" viewBox="0 0 126 121" fill="none" xmlns="http://www.w3.org/2000/svg">
<path d="M25.0715 75.1965L25.5526 65.8299C25.621 64.4978 24.6994 63.3751 23.4926 63.3204C22.2856 63.2655 21.2531 64.2995 21.1849 65.6315L21.0198 68.8452C16.157 60.8994 17.2401 49.9071 23.961 43.1763C24.8719 42.264 24.931 40.7408 24.1359 39.7721C23.3407 38.8035 21.9423 38.7399 21.0516 39.632C12.4482 48.2481 11.2361 62.4984 17.8966 72.4545L14.5441 72.3022C13.3371 72.2473 12.3047 73.2813 12.2364 74.6133C12.1626 76.0511 13.3828 77.1556 14.2965 77.1229L22.7641 77.5076C23.9706 77.5626 25.0031 76.5287 25.0715 75.1965Z" fill="#34394C"/>
<path d="M100.156 89.42L92.1451 92.5379C91.0058 92.9814 90.4228 94.3533 90.8421 95.6045C91.2612 96.8559 92.5228 97.5099 93.6619 97.0664L96.4106 95.9966C91.6454 104.014 82.0443 107.145 73.8316 102.887C72.7185 102.31 71.4231 102.837 70.9202 104.021C70.4172 105.204 70.9028 106.654 71.9913 107.218C82.5042 112.668 94.877 108.414 100.629 97.7895L101.793 101.265C102.213 102.517 103.474 103.171 104.613 102.727C105.843 102.249 106.296 100.579 105.916 99.6606L102.976 90.8815C102.557 89.6305 101.295 88.9765 100.156 89.42Z" fill="#34394C"/>
<path d="M87.9159 10.9289L89.9784 8.1866C90.7209 7.19931 90.5628 5.7867 89.6249 5.02911C88.6871 4.27152 87.3136 4.45887 86.5845 5.44433L81.3886 12.3688C80.6461 13.3561 80.8042 14.7687 81.7421 15.5263L88.3233 20.8564C89.2015 21.566 90.7423 21.2994 91.3637 20.4411C92.1063 19.4538 91.9481 18.0412 91.0103 17.2836L88.7477 15.4555C97.4087 15.5381 104.846 22.2276 105.875 31.4236C106.015 32.6699 107.098 33.5203 108.272 33.36C109.446 33.1998 110.306 32.0559 110.169 30.8371C108.852 19.0654 99.0984 10.5547 87.9159 10.9289Z" fill="#34394C"/>
<path d="M103.862 64.5861C101.385 67.6897 97.422 67.6897 94.945 64.5861C94.6147 64.1724 94.2844 63.5517 93.9541 63.1379H98.0826C98.578 63.1379 98.9082 62.7242 98.9082 62.1035C98.9082 61.4828 98.578 61.069 98.0826 61.069H93.4587C93.1285 59.6208 93.1285 58.3794 93.4587 56.931H99.7339C100.229 56.931 100.56 56.5173 100.56 55.8965C100.56 55.2758 100.229 54.8621 99.7339 54.8621H94.1192C94.4494 54.2414 94.6146 53.8276 95.11 53.4139C97.5871 50.3103 101.55 50.3103 104.193 53.4139C104.853 54.2416 105.844 54.2416 106.505 53.4139C107.165 52.5862 107.165 51.345 106.505 50.5173C104.688 48.2414 102.211 47 99.7339 47C97.2569 47 94.7798 48.2414 92.9633 50.5173C91.9724 51.7587 91.1468 53.4139 90.8165 54.8621H89.8257C89.3302 54.8621 89 55.2758 89 55.8965C89 56.5173 89.3302 56.931 89.8257 56.931H90.1559C89.9907 58.3792 89.9907 59.6206 90.1559 61.069H89.8257C89.3302 61.069 89 61.4828 89 62.1035C89 62.7242 89.3302 63.1379 89.8257 63.1379H90.4863C90.9817 64.7931 91.6422 66.2415 92.633 67.4827C94.4495 69.7586 96.9267 71 99.4037 71C101.881 71 104.358 69.7586 106.174 67.4827C106.835 66.655 106.835 65.4138 106.174 64.5861C105.514 63.7584 104.523 63.7584 103.862 64.5861Z" fill="#34394C"/>
<path d="M53.5 3C41.5772 3 32 13.2454 32 26C32 38.7546 41.5772 49 53.5 49C65.4228 49 75 38.7546 75 26C75 13.2454 65.4228 3 53.5 3ZM53.5 44.8181C43.7272 44.8181 35.9091 36.4546 35.9091 26C35.9091 15.5454 43.7272 7.18187 53.5 7.18187C63.2728 7.18187 71.0909 15.5454 71.0909 26C71.0909 36.4546 63.2728 44.8181 53.5 44.8181Z" fill="#34394C"/>
<path d="M99.5 37C88.1318 37 79 47.2454 79 60C79 72.7546 88.1318 83 99.5 83C110.868 83 120 72.7546 120 60C120 47.2454 110.868 37 99.5 37ZM99.5 78.8181C90.1818 78.8181 82.7273 70.4546 82.7273 60C82.7273 49.5454 90.1818 41.1819 99.5 41.1819C108.818 41.1819 116.273 49.5454 116.273 60C116.273 70.4546 108.818 78.8181 99.5 78.8181Z" fill="#34394C"/>
<path d="M49 64C36.8 64 27 74.4681 27 87.5C27 100.532 36.8 111 49 111C61.2 111 71 100.532 71 87.5C71 74.4681 61.2 64 49 64ZM49 106.727C39 106.727 31 98.1819 31 87.5C31 76.8181 39 68.2728 49 68.2728C59 68.2728 67 76.8181 67 87.5C67 98.1819 59 106.727 49 106.727Z" fill="#34394C"/>
<path d="M55 23.2857H50.9999C49.7998 23.2857 48.9999 22.3999 48.9999 21.0715C48.9999 19.743 49.8 18.8572 50.9999 18.8572H56.9999C58.2 18.8572 58.9999 17.9714 58.9999 16.643C58.9999 15.3145 58.1998 14.4287 56.9999 14.4287H55V12.2143C55 10.8856 54.1999 10 53 10C51.8001 10 51 10.8858 51 12.2143V14.4285C47.6 14.4285 45 17.3071 45 21.0715C45 24.8359 47.6 27.7145 51 27.7145H55.0001C56.2002 27.7145 57.0001 28.6003 57.0001 29.9287C57.0001 31.2573 56.2 32.143 55.0001 32.143H49.0001C47.8 32.143 47.0001 33.0288 47.0001 34.3572C47.0001 35.6857 47.8002 36.5715 49.0001 36.5715H51V38.7857C51 40.1144 51.8001 41 53 41C54.1999 41 55 40.1142 55 38.7857V36.5715C58.4 36.5715 61 33.6929 61 29.9285C61 26.1645 58.4 23.2857 55 23.2857Z" fill="#34394C"/>
<path d="M50.775 88.4242C54.7589 88.4242 58 85.1889 58 81.2121C58 77.2354 54.7589 74 50.775 74C50.7594 74 50.744 74.0003 50.7286 74.0008H44.8267C44.8261 74.0008 44.8256 74.0008 44.8251 74.0008C44.1209 74.0008 43.5501 74.5706 43.5501 75.2735V75.2736V87.1515V90.9697H42.275C41.5709 90.9697 41 91.5395 41 92.2424C41 92.9453 41.5709 93.5152 42.275 93.5152H43.55V100.727C43.55 101.43 44.1209 102 44.825 102C45.5291 102 46.1 101.43 46.1 100.727V93.5152H50.775C51.4791 93.5152 52.05 92.9453 52.05 92.2424C52.05 91.5395 51.4791 90.9697 50.775 90.9697H46.1V88.4242H50.775ZM50.775 76.5463C50.7888 76.5463 50.8025 76.546 50.8161 76.5456C53.3751 76.5677 55.45 78.6526 55.45 81.2121C55.45 83.7853 53.3528 85.8788 50.775 85.8788H46.1V76.5463H50.775Z" fill="#34394C"/>
</svg>
