<svg width="14" height="14" viewBox="0 0 14 14" fill="none" xmlns="http://www.w3.org/2000/svg">
<path d="M7.0696 10.1403L7.15527 6.54129" stroke="#5A5A5A" stroke-linecap="round"/>
<path d="M7.19626 4.84181C7.33429 4.8451 7.44885 4.73586 7.45214 4.59783C7.45542 4.4598 7.34619 4.34524 7.20816 4.34195C7.07012 4.33867 6.95556 4.4479 6.95228 4.58593C6.94899 4.72397 7.05822 4.83853 7.19626 4.84181Z" fill="#5A5A5A" stroke="#5A5A5A"/>
<path d="M4.26569 1.87386C5.16011 1.38449 6.19142 1.11678 7.28395 1.14278C10.5967 1.22164 13.2183 3.9711 13.1395 7.28387C13.0606 10.5966 10.3111 13.2182 6.99838 13.1394C3.68561 13.0605 1.064 10.311 1.14286 6.9983C1.16887 5.90577 1.48535 4.88838 2.01672 4.01825" stroke="#5A5A5A" stroke-linecap="round"/>
</svg>
