<svg width="20" height="20" viewBox="0 0 20 20" fill="none" xmlns="http://www.w3.org/2000/svg">
<path d="M5.83128 6.81357C5.47855 7.15131 4.83521 7.81114 3.97641 7.75746C3.78201 7.74531 3.68513 7.6145 3.63953 7.4683C3.61762 7.57087 3.49269 7.77165 3.30991 7.72707C2.96973 7.6441 2.61366 7.44517 2.23523 7.13721C2.81945 8.68793 3.86637 9.09302 5.18948 8.81426C4.60693 8.68203 4.07969 8.49074 3.67245 8.17133C4.76794 8.21368 5.52295 7.41743 5.83128 6.81357Z" fill="#B17700"/>
<path d="M5.97222 8.33105C5.46199 9.14122 4.32923 9.76484 3.33496 9.34338C3.98114 10.4551 5.20753 10.5802 5.71724 9.78543C5.33613 10.0725 4.85725 9.98345 4.64675 9.77148C5.50592 9.4316 5.7488 8.8846 5.97222 8.33105Z" fill="#B17700"/>
<path d="M6.33198 9.7207C6.10752 10.4079 4.96091 11.3112 4.07556 11.365C5.173 12.0778 5.78395 11.7016 6.25569 11.0137C5.97959 11.1271 5.80292 11.1828 5.62369 10.9985C6.11887 10.6509 6.32278 10.1225 6.33198 9.7207Z" fill="#B17700"/>
<path d="M6.70948 11.1073C6.40962 11.7629 5.79821 12.4034 5.10071 12.4443C5.77263 12.7747 6.49939 12.7374 6.98363 12.248C6.65915 12.3397 6.41544 12.4341 6.2061 12.3232C6.5827 12.0981 6.76904 11.4604 6.70948 11.1073Z" fill="#B17700"/>
<path d="M9.91583 19.9462C8.45268 17.163 9.02535 14.384 9.56926 11.5673C9.09155 10.4752 8.59168 9.40333 7.84828 8.55396C7.71574 9.55507 8.15136 10.783 8.91436 12.0186C8.38776 13.2564 7.79152 14.4144 7.44176 15.6447C7.30372 16.1303 7.55976 15.986 7.85043 15.7421C7.68151 16.2218 7.47034 16.6421 6.98566 16.6768C6.75386 16.1366 7.21405 15.2745 7.53041 14.6075C7.88394 13.6969 8.33893 12.8605 8.76027 11.9996C7.67825 10.5935 7.1583 9.18809 7.19959 7.78348L6.69946 7.38631C6.81042 8.71886 7.0219 10.064 8.07653 11.5145C7.77051 12.4633 7.16067 13.1591 6.36986 13.3995C6.94592 12.9109 7.45348 12.3195 7.68593 11.6477C6.50812 10.0511 6.3552 8.46253 6.19029 6.87386C5.4525 5.96188 3.7881 5.57436 2.77867 5.75028C3.3019 6.33966 4.08107 6.7659 5.13379 6.92317C3.29317 6.88007 1.58103 6.60776 0.648839 4.94386C1.39419 5.08037 2.25411 5.30928 3.0038 5.1684C4.32163 5.29328 5.61026 5.72564 6.12747 6.20334C6.41744 6.47115 7.07665 7.0064 7.40954 7.06757C7.46539 6.88771 7.21652 6.47505 7.13254 6.37128C6.27719 5.31416 5.37557 4.72655 4.24205 3.95742C3.61615 3.49022 2.18475 3.72116 1.51846 3.81085C1.41784 3.82439 1.28837 3.84282 1.18823 3.86834C1.26966 3.95969 1.38756 4.03323 1.52727 4.09671C1.69601 4.17337 2.00963 4.29098 2.00963 4.29098C2.07355 4.21246 2.11456 4.17991 2.24828 4.18989C2.36061 4.19826 2.41457 4.29157 2.46848 4.39765C3.22382 4.68066 3.92794 4.85019 4.77346 5.01394C3.65352 4.99398 1.75203 4.88961 0.682156 4.06791C0.136415 3.64877 0.125765 2.95812 0 2.38878C0.375259 3.03598 0.916905 3.36963 1.75809 3.22564C2.17445 3.15436 2.64122 3.18724 3.09206 3.27507C2.37648 2.60534 2.1724 1.97355 2.05464 1.28501C2.4588 2.00598 2.54952 2.72446 3.93061 3.27926C4.80121 3.62899 5.55429 4.21772 6.30498 4.7711C6.48031 4.6651 6.63439 4.37249 6.51553 4.08495C6.04485 3.47031 5.53442 2.85084 4.90899 2.35004C4.61245 2.28932 4.31587 2.25176 4.01949 2.07143C4.15696 2.77972 4.91519 3.28427 5.47777 3.85303C3.45887 2.71598 2.98385 1.39014 3.0347 0C3.43839 0.942856 3.75364 1.90318 5.1196 2.06575C6.20566 2.72476 6.78447 3.95293 7.695 4.82421C7.38166 4.82274 6.74137 4.90763 7.12011 5.38131C8.17711 6.70329 8.91704 7.93554 9.26009 9.18323C8.91084 8.65015 8.58449 8.22195 8.10884 7.93685C8.66781 8.82064 9.61735 10.0341 10.0725 11.0452L10.0997 12.1443C9.83457 13.9378 9.22517 15.6453 10.0079 17.8974L9.91583 19.9462Z" fill="#F7A600"/>
<path d="M8.95485 13.0797C8.74534 14.2131 8.22486 15.1806 7.95772 16.2817C7.77566 17.0321 7.73598 18.3393 8.00054 18.3784C8.39676 18.437 8.49187 17.1929 8.65521 16.4841C8.5395 16.7473 8.41021 17.168 8.23936 17.1198C7.96442 17.0424 8.30633 15.6746 8.48164 15.0005C8.6161 14.4834 8.86961 13.7712 8.95485 13.0797Z" fill="#B17700"/>
<path d="M8.24801 5.90665C8.58439 5.78296 8.80853 5.6305 8.77221 4.96343C8.70481 4.35292 8.42181 3.24838 7.64342 3.73956C7.59131 3.54158 7.67904 3.24658 7.84343 3.07115C8.2789 2.60642 8.83703 2.91924 9.28032 3.22848C9.63952 3.05025 10.0056 2.93562 10.4445 3.49767C10.9239 4.37633 11.5307 5.12747 12.5592 5.45653C11.8052 5.32505 10.9988 5.14636 10.4943 4.35571C10.1373 3.79622 9.90645 3.59357 9.65513 3.58996C9.71326 3.65179 9.75762 3.88565 9.80052 4.07401C9.61364 3.95161 9.46131 3.79759 9.42416 3.58748C9.10401 3.56413 8.89945 3.50517 8.63522 3.28449C8.63522 3.28449 9.19054 4.45324 9.0435 5.09763C8.8605 5.8996 8.68327 5.90363 8.24801 5.90665Z" fill="#F7A600"/>
<path d="M10.0366 4.41092C10.3282 4.90704 10.8201 5.37711 11.3889 5.56369C10.7148 5.69676 10.082 5.01074 10.0366 4.41092Z" fill="#F7A600"/>
<path d="M9.45331 4.7003C9.98145 5.51306 10.6237 6.06335 11.5184 6.03295C10.8116 6.94869 10.2299 7.99638 10.0011 9.41609C9.63628 8.36455 9.24175 7.34333 8.64148 6.53204C9.21037 6.09925 9.43355 5.47799 9.17402 4.59354C9.51232 5.28466 9.52595 5.96204 9.19059 6.62466C9.53167 7.01057 9.75546 7.51613 9.87813 7.95713C10.0723 7.40136 10.447 6.88822 10.7368 6.58072C10.0341 5.86931 9.56966 5.19931 9.45331 4.7003Z" fill="#F7A600"/>
<path d="M9.94122 20C11.4044 17.2168 10.9746 14.384 10.4308 11.5673C10.9085 10.4752 11.4083 9.40333 12.1517 8.55399C12.2842 9.55505 11.8486 10.783 11.0857 12.0186C11.6122 13.2564 12.2085 14.4144 12.5582 15.6447C12.6962 16.1303 12.4402 15.986 12.1495 15.7421C12.3185 16.2219 12.5296 16.6421 13.0143 16.6768C13.2461 16.1366 12.7859 15.2745 12.4696 14.6075C12.1161 13.6969 11.661 12.8605 11.2397 11.9996C12.3217 10.5935 12.8417 9.18811 12.8004 7.78349L13.3005 7.38632C13.1895 8.71883 12.9781 10.064 11.9234 11.5145C12.2294 12.4633 12.8393 13.1591 13.6301 13.3995C13.0541 12.911 12.5465 12.3195 12.3141 11.6477C13.4918 10.0511 13.6448 8.46255 13.8097 6.87386C14.5475 5.96189 16.2118 5.57435 17.2213 5.75027C16.6981 6.33966 15.9189 6.76591 14.8662 6.92317C16.7068 6.88007 18.419 6.60777 19.3511 4.94386C18.6058 5.08037 17.7458 5.30928 16.9962 5.1684C15.6784 5.29327 14.3897 5.72564 13.8725 6.20335C13.5825 6.47116 12.9234 7.0064 12.5904 7.06757C12.5345 6.88772 12.7835 6.47505 12.8674 6.37127C13.7228 5.31416 14.6244 4.72655 15.758 3.95743C16.3839 3.49022 17.8152 3.72116 18.4815 3.81085C18.5821 3.82439 18.7116 3.84282 18.8117 3.86834C18.7303 3.95969 18.6124 4.03323 18.4727 4.09671C18.304 4.17337 17.9903 4.29098 17.9903 4.29098C17.9264 4.21246 17.8854 4.17991 17.7517 4.18989C17.6394 4.19826 17.5854 4.29158 17.5315 4.39765C16.7761 4.68066 16.072 4.85019 15.2265 5.01394C16.3465 4.99398 18.2479 4.88961 19.3178 4.06791C19.8636 3.64876 19.8742 2.95812 20 2.38878C19.6247 3.03598 19.0831 3.36963 18.2419 3.22563C17.8255 3.15436 17.3587 3.18724 16.9079 3.27507C17.6235 2.60534 17.8276 1.97355 17.9453 1.28501C17.5412 2.00598 17.4504 2.72445 16.0694 3.27926C15.1988 3.62899 14.4457 4.21772 13.695 4.7711C13.5197 4.6651 13.3656 4.37249 13.4844 4.08495C13.9551 3.47031 14.4656 2.85084 15.091 2.35004C15.3875 2.28932 15.6841 2.25177 15.9805 2.07144C15.843 2.77972 15.0848 3.28427 14.5222 3.85303C16.5411 2.71599 17.0161 1.39014 16.9652 0C16.5615 0.942856 16.2463 1.90319 14.8803 2.06575C13.7943 2.72475 13.2155 3.95293 12.3049 4.82421C12.6183 4.82274 13.2586 4.90763 12.8799 5.38131C11.8229 6.7033 11.0829 7.93553 10.7399 9.18324C11.0891 8.65014 11.4155 8.22195 11.8911 7.93685C11.3322 8.82067 10.4372 10.0105 9.98213 11.0217L10.0967 12.1084C10.3619 13.9019 10.6922 15.6396 9.90942 17.8918L9.94122 20Z" fill="#F7A600"/>
<path d="M14.1987 6.85318C14.5515 7.19092 15.1948 7.85076 16.0536 7.79707C16.248 7.78492 16.3449 7.65411 16.3905 7.50792C16.4124 7.61048 16.5373 7.81126 16.7201 7.76668C17.0603 7.68371 17.4164 7.48478 17.7948 7.17682C17.2106 8.72754 16.1636 9.13263 14.8405 8.85387C15.4231 8.72164 15.9503 8.53035 16.3576 8.21094C15.2621 8.2533 14.5071 7.45704 14.1987 6.85318Z" fill="#B17700"/>
<path d="M14.0577 8.37064C14.568 9.1808 15.7007 9.80442 16.695 9.38296C16.0488 10.4947 14.8224 10.6198 14.3127 9.82501C14.6938 10.1121 15.1727 10.023 15.3832 9.81106C14.524 9.47118 14.2812 8.92418 14.0577 8.37064Z" fill="#B17700"/>
<path d="M13.6984 9.76028C13.9228 10.4474 15.0694 11.3508 15.9548 11.4046C14.8573 12.1174 14.2464 11.7411 13.7747 11.0533C14.0508 11.1666 14.2274 11.2224 14.4067 11.038C13.9115 10.6905 13.7076 10.1621 13.6984 9.76028Z" fill="#B17700"/>
<path d="M13.3208 11.1469C13.6206 11.8025 14.2321 12.443 14.9296 12.4839C14.2576 12.8143 13.5309 12.777 13.0466 12.2876C13.3711 12.3792 13.6148 12.4736 13.8242 12.3628C13.4476 12.1377 13.2612 11.4999 13.3208 11.1469Z" fill="#B17700"/>
<path d="M11.0753 13.1193C11.2848 14.2527 11.8053 15.2202 12.0724 16.3213C12.2545 17.0717 12.2942 18.3789 12.0296 18.4179C11.6334 18.4766 11.5383 17.2324 11.375 16.5237C11.4907 16.7869 11.62 17.2075 11.7908 17.1594C12.0657 17.0819 11.7238 15.7142 11.5485 15.0401C11.4141 14.523 11.1605 13.8108 11.0753 13.1193Z" fill="#B17700"/>
</svg>
