<svg width="21" height="20" viewBox="0 0 21 20" fill="none" xmlns="http://www.w3.org/2000/svg">
<path fill-rule="evenodd" clip-rule="evenodd" d="M10.9329 3.20303L12.7065 6.79301C12.914 7.21358 13.2161 7.58044 13.589 7.8649C13.9549 8.14087 14.3778 8.33161 14.8269 8.42318L17.5723 8.97879L15.5313 10.5276C15.0875 10.8614 14.745 11.3116 14.5417 11.8282C14.3384 12.3449 14.2824 12.9078 14.3798 13.4543L15.0385 17.1186L12.4251 15.6491C11.9691 15.3932 11.4549 15.2588 10.9319 15.2588C10.4089 15.2588 9.89472 15.3932 9.43866 15.6491L6.82725 17.1173L7.48536 13.4563C7.58372 12.9108 7.52894 12.3486 7.32709 11.8323C7.12523 11.3159 6.78419 10.8656 6.34185 10.5313L4.2942 8.97746L7.03696 8.42218C7.49095 8.33155 7.91808 8.13796 8.28545 7.85632C8.65282 7.57468 8.95065 7.2125 9.15597 6.79767L10.9329 3.2017M10.9329 1.75577e-05C10.7398 -0.00110777 10.5502 0.0518818 10.3857 0.152972C10.2212 0.254062 10.0883 0.399209 10.0021 0.571962L7.36367 5.91076C7.29454 6.05142 7.19351 6.17399 7.06862 6.26872C6.94279 6.36432 6.79688 6.43008 6.6419 6.46104L1.75647 7.44994C1.56474 7.48754 1.38776 7.57925 1.24651 7.71421C1.10525 7.84917 1.00561 8.02175 0.959351 8.21153C0.914844 8.40056 0.926348 8.59846 0.992478 8.78105C1.05861 8.96365 1.1765 9.12304 1.33174 9.23976L5.13233 12.1251C5.2807 12.2361 5.3953 12.3861 5.46337 12.5584C5.5317 12.7296 5.55021 12.9165 5.51673 13.0977L4.49124 18.8088C4.45736 18.9992 4.47946 19.1954 4.55484 19.3735C4.63023 19.5516 4.75567 19.7041 4.91596 19.8124C5.09026 19.9322 5.29685 19.9963 5.50838 19.996C5.68921 19.9966 5.86718 19.9507 6.02515 19.8627L10.4171 17.3933C10.5745 17.305 10.7518 17.2586 10.9322 17.2586C11.1126 17.2586 11.29 17.305 11.4473 17.3933L15.842 19.8657C16.0131 19.9615 16.2075 20.0076 16.4034 19.999C16.5993 19.9903 16.7889 19.9272 16.9508 19.8167C17.1112 19.7085 17.2367 19.556 17.3122 19.3779C17.3876 19.1998 17.4098 19.0036 17.3759 18.8131L16.3481 13.0997C16.3152 12.9184 16.3339 12.7316 16.4021 12.5604C16.4702 12.3881 16.5848 12.2381 16.7331 12.1271L20.5337 9.24177C20.689 9.12504 20.8069 8.96565 20.873 8.78305C20.9391 8.60046 20.9506 8.40256 20.9061 8.21353C20.8598 8.02367 20.76 7.85106 20.6186 7.71609C20.4773 7.58113 20.3002 7.48947 20.1083 7.45194L15.2222 6.46304C15.0673 6.43177 14.9213 6.36604 14.7952 6.27073C14.6705 6.17589 14.5696 6.05333 14.5005 5.91276L11.8634 0.57396C11.7771 0.401269 11.6442 0.256119 11.4798 0.154884C11.3154 0.0536488 11.126 0.000358497 10.9329 0.00101945V1.75577e-05Z"/>
</svg>
